#!OML:ASF F:\VICON\USERDATA\INSTALL\rory3\rory3.ASF
:FULLY-SPECIFIED
:DEGREES
242
root -0.000965594 18.4588 -22.7846 -113.99 -28.1412 134.865
lowerback -16.0197 -4.43303 -18.1361
upperback -19.7616 -11.4683 -12.1113
thorax -13.7701 -7.09071 -3.51975
lowerneck -7.79463 -13.6558 -10.966
upperneck -7.32427 -17.8923 1.55933
head 0.0311297 -8.90145 1.65054
rclavicle 3.80673e-014 1.55052e-013
rhumerus 64.1807 -35.1593 -40.5168
rradius 17.1239
rwrist 44.6537
rhand 25.1028 -3.20548
rfingers 7.12502
rthumb 49.2556 -24.8105
lclavicle 3.80673e-014 1.55052e-013
lhumerus 3.65736 -23.3006 -26.991
lradius 20.8521
lwrist -48.3514
lhand 22.5935 19.8597
lfingers 7.12502
lthumb 46.943 42.5509
rfemur -140.138 -54.4704 97.1665
rtibia 28.7796
rfoot 44.37 -15.5583
rtoes 64.5119
lfemur 12.2156 -12.1754 -3.44878
ltibia 23.2914
lfoot 15.8045 50.8831
ltoes 37.7746
243
root -0.0136889 18.4671 -22.8108 -113.114 -27.582 134.096
lowerback -16.7402 -4.94654 -19.1014
upperback -19.7444 -11.9602 -12.0375
thorax -13.2959 -7.30355 -3.12351
lowerneck -6.84772 -12.9935 -10.4659
upperneck -9.38324 -17.341 1.99748
head -0.816473 -8.61732 1.91757
rclavicle -2.32081e-013 8.82604e-014
rhumerus 68.4579 -35.5426 -43.4831
rradius 17.1226
rwrist 45.3785
rhand 24.7453 -3.23877
rfingers 7.12502
rthumb 48.9272 -25.0071
lclavicle -2.32081e-013 8.82604e-014
lhumerus 3.79685 -21.7736 -28.4974
lradius 20.5548
lwrist -47.8462
lhand 23.3021 21.5773
lfingers 7.12502
lthumb 47.5979 43.9756
rfemur -132.539 -57.723 87.4922
rtibia 27.3488
rfoot 37.8525 -19.1733
rtoes 64.6084
lfemur 13.2829 -13.352 -3.13986
ltibia 22.8874
lfoot 9.07165 52.3947
ltoes 40.8347
244
root -0.0233255 18.4739 -22.8425 -112.514 -27.4479 133.427
lowerback -16.8113 -5.04917 -19.4477
upperback -19.9538 -12.3192 -12.3278
thorax -13.6147 -7.5381 -3.27225
lowerneck -6.48958 -12.8717 -10.0061
upperneck -9.74489 -17.2778 1.87264
head -1.0433 -8.58485 1.86485
rclavicle 9.44227e-015 1.13307e-013
rhumerus 70.7313 -35.4476 -44.8715
rradius 17.3281
rwrist 45.0086
rhand 24.142 -3.54528
rfingers 7.12502
rthumb 48.3723 -25.5825
lclavicle 9.44227e-015 1.13307e-013
lhumerus 4.88764 -21.1837 -30.3707
lradius 20.2275
lwrist -46.1828
lhand 22.5073 23.4724
lfingers 7.12502
lthumb 46.8633 46.1987
rfemur -125.067 -60.2616 78.7257
rtibia 26.0469
rfoot 32.7894 -20.2297
rtoes 64.5168
lfemur 14.5702 -14.4519 -2.30813
ltibia 22.339
lfoot 3.12932 53.088
ltoes 43.1428
245
root -0.0497076 18.5035 -22.8975 -111.956 -27.7619 132.935
lowerback -17.0691 -5.21254 -19.2543
upperback -20.0381 -12.5709 -12.4145
thorax -13.6362 -7.73678 -3.50708
lowerneck -6.22544 -12.71 -9.55403
upperneck -10.3271 -17.1841 1.75609
head -1.32755 -8.54135 1.82312
rclavicle -7.14631e-014 9.54166e-014
rhumerus 73.5247 -35.4265 -46.8661
rradius 17.7371
rwrist 44.8805
rhand 23.7749 -3.82146
rfingers 7.12502
rthumb 48.0341 -26.0184
lclavicle -7.14631e-014 9.54166e-014
lhumerus 5.60267 -18.7008 -31.6021
lradius 20.2071
lwrist -48.0501
lhand 23.075 24.1186
lfingers 7.12502
lthumb 47.3882 46.6118
rfemur -225.196 -171.634 144.295
rtibia 24.7573
rfoot -44.0664 -47.7835
rtoes 43.3625
lfemur 15.6566 -15.1569 -0.897184
ltibia 21.8782
lfoot 1.4714 53.1179
ltoes 43.3325
246
root -0.0717926 18.5126 -22.9242 -111.226 -27.7061 132.119
lowerback -17.3176 -5.48156 -19.5153
upperback -20.0418 -12.9162 -12.53
thorax -13.5402 -7.94156 -3.57447
lowerneck -5.93298 -12.4591 -9.12236
upperneck -11.19 -17.0068 1.70519
head -1.70627 -8.45847 1.82649
rclavicle -7.95139e-015 -1.19668e-013
rhumerus 79.6447 -35.625 -53.7194
rradius 17.3582
rwrist 49.0886
rhand 23.8459 -2.82577
rfingers 7.12502
rthumb 48.0995 -24.992
lclavicle -7.95139e-015 -1.19668e-013
lhumerus 6.19607 -16.7015 -32.7042
lradius 20.1611
lwrist -48.3858
lhand 25.0458 25.6899
lfingers 7.12502
lthumb 49.2032 47.3212
rfemur -223.846 -176.049 141.126
rtibia 23.8059
rfoot -51.7692 -48.4116
rtoes 42.0995
lfemur 16.6019 -16.2236 -0.10541
ltibia 21.5003
lfoot -1.73398 53.1642
ltoes 44.0988
